# xmcd
#
# Track frame offsets:
#  150
#  14344
#  27613
#  41103
#  53019
#  66080
#  82396
#  95174
#  112973
#  131143
#  149249
#  161027
#  173266
#  185797
#  202649
#  214816
#  224775
#  239093
#
# Disc length: 3315 seconds
#
# Revision: 0
# Processed by: cddbd v1.4PL0 Copyright (c) Steve Scherf et al.
# Submitted via: AltoMP3_Maker 3.0
#
DISCID=200cf112
DTITLE=Various Artist - The Best Of Country Music [CD1)
DYEAR=1900
DGENRE=
TTITLE0=Let Your Love Flow
TTITLE1=I Wouldn't Change You If I Could
TTITLE2=Ruby Don't Take Your Love To Town
TTITLE3=Arms Of Mary
TTITLE4=Misty
TTITLE5=Me And Bobby McGee
TTITLE6=Right Time Of The Night
TTITLE7=The Sweetest Thing
TTITLE8=You And I
TTITLE9=I Believe In You
TTITLE10=The Most Beautiful Girl
TTITLE11=Crying
TTITLE12=Everybody's Talkin'
TTITLE13=For The Good Times
TTITLE14=Oh Lonesome Me
TTITLE15=Galveston
TTITLE16=Coat Of Many Colours
TTITLE17=Hello Mary Lou
EXTD=
EXTT0=
EXTT1=
EXTT2=
EXTT3=
EXTT4=
EXTT5=
EXTT6=
EXTT7=
EXTT8=
EXTT9=
EXTT10=
EXTT11=
EXTT12=
EXTT13=
EXTT14=
EXTT15=
EXTT16=
EXTT17=
PLAYORDER=
